<?xml version="1.0" encoding="UTF-8" standalone="no"?>
<svg
   xmlns:dc="http://purl.org/dc/elements/1.1/"
   xmlns:cc="http://creativecommons.org/ns#"
   xmlns:rdf="http://www.w3.org/1999/02/22-rdf-syntax-ns#"
   xmlns:svg="http://www.w3.org/2000/svg"
   xmlns="http://www.w3.org/2000/svg"
   version="1.1"
   id="svg3389"
   viewBox="0 0 479.99998 128"
   height="128"
   width="480">
  <defs
     id="defs3391" />
  <metadata
     id="metadata3394">
    <rdf:RDF>
      <cc:Work
         rdf:about="">
        <dc:format>image/svg+xml</dc:format>
        <dc:type
           rdf:resource="http://purl.org/dc/dcmitype/StillImage" />
        <dc:title></dc:title>
      </cc:Work>
    </rdf:RDF>
  </metadata>
  <g
     transform="translate(0,-924.36218)"
     id="layer1">
    <g
       style="fill:#ff9600;fill-opacity:1"
       transform="matrix(0.36188267,0,0,0.36188267,206.56417,1163.377)"
       id="g4194-2-7-5-3-6-5-7-2-0-3">
      <path
         style="color:#000000;font-style:normal;font-variant:normal;font-weight:normal;font-stretch:normal;font-size:medium;line-height:normal;font-family:sans-serif;text-indent:0;text-align:start;text-decoration:none;text-decoration-line:none;text-decoration-style:solid;text-decoration-color:#000000;letter-spacing:normal;word-spacing:normal;text-transform:none;direction:ltr;block-progression:tb;writing-mode:lr-tb;baseline-shift:baseline;text-anchor:start;white-space:normal;clip-rule:nonzero;display:inline;overflow:visible;visibility:visible;opacity:1;isolation:auto;mix-blend-mode:normal;color-interpolation:sRGB;color-interpolation-filters:linearRGB;solid-color:#000000;solid-opacity:1;fill:#ff9600;fill-opacity:1;fill-rule:nonzero;stroke:none;stroke-width:10.57328606;stroke-linecap:butt;stroke-linejoin:miter;stroke-miterlimit:20.10000229;stroke-dasharray:42.29314348, 42.29314348;stroke-dashoffset:121.98999786;stroke-opacity:1;color-rendering:auto;image-rendering:auto;shape-rendering:auto;text-rendering:auto;enable-background:accumulate"
         d="m -396.16797,-626.51172 -2.84961,0.0352 -0.0644,0 -0.0645,0.002 -2.83204,0.10352 -0.0645,0.002 -0.0644,0.004 -2.8125,0.17187 -0.0645,0.004 -0.0645,0.006 -2.79297,0.24023 -0.0645,0.004 -0.0645,0.008 -2.77149,0.30469 -0.0645,0.008 -0.0644,0.008 -2.75196,0.3711 -0.0625,0.01 -0.0645,0.01 -2.72852,0.43554 -0.0645,0.01 -0.0625,0.0117 -2.70703,0.5 -0.0625,0.0117 -0.0625,0.0117 -2.68359,0.56445 -0.0625,0.0117 -0.0625,0.0156 -2.65821,0.625 -0.0625,0.0137 -0.0605,0.0156 -2.63282,0.6875 -0.0625,0.0156 -0.0605,0.0176 -2.60742,0.7461 -0.0605,0.0176 -0.0606,0.0195 -2.57812,0.80664 -0.0606,0.0195 -0.0605,0.0195 -2.55078,0.86523 -0.0605,0.0215 -0.0586,0.0215 -1.9043,0.69727 3.63477,9.92773 1.78516,-0.65429 0.0234,-0.008 2.45899,-0.83398 2.50976,-0.78516 0.0176,-0.006 2.43945,-0.69726 0.0449,-0.0137 2.38671,-0.62109 0.0313,-0.008 2.58203,-0.60742 0.0449,-0.01 2.55469,-0.53515 0.004,0 2.51758,-0.4629 2.64844,-0.42187 0.0176,-0.004 2.55859,-0.34375 2.68359,-0.29492 0.0293,-0.004 2.58789,-0.2207 2.71484,-0.16601 2.6211,-0.0957 0.0332,0 2.75195,-0.0351 1.51172,0.0195 0.12891,-10.57227 -1.57617,-0.0195 -0.0645,-0.002 z m 40.93164,18.4961 0.0996,0.0391 2.37695,1.00195 0.0391,0.0156 2.25976,1.01953 2.22461,1.0625 0.0469,0.0234 2.27148,1.1543 0.0449,0.0234 2.16016,1.16601 2.19922,1.25196 0.043,0.0234 2.13281,1.28516 0.0156,0.01 2.00977,1.27343 0.043,0.0293 2.11133,1.41016 0.0293,0.0195 1.94141,1.36328 0.0254,0.0195 2.04883,1.51172 0.0312,0.0234 1.92773,1.49804 0.0371,0.0293 1.88281,1.53516 0.043,0.0351 1.79102,1.53125 0.006,0.006 1.92383,1.72266 0.01,0.01 1.71094,1.61133 0.004,0.002 0.006,0.006 0.082,0.0781 3.26367,-3.46875 4.08008,-4.13672 -0.01,-0.008 -0.043,-0.0449 -0.0469,-0.043 -1.89453,-1.7832 -0.0469,-0.043 -0.0469,-0.041 -1.93946,-1.74023 -0.0449,-0.041 -0.0488,-0.041 -1.98242,-1.69336 -0.0469,-0.041 -0.0488,-0.0391 -2.02344,-1.65039 -0.0488,-0.0391 -0.0488,-0.0391 -2.0664,-1.60156 -0.0488,-0.0391 -0.0508,-0.0371 -2.10547,-1.55469 -0.0508,-0.0371 -0.0508,-0.0352 -2.14453,-1.50781 -0.0508,-0.0351 -0.0527,-0.0352 -2.18359,-1.45898 -0.0527,-0.0352 -0.0527,-0.0332 -2.2207,-1.40821 -0.0527,-0.0332 -0.0547,-0.0332 -2.25781,-1.35743 -0.0527,-0.0312 -0.0547,-0.0313 -2.29492,-1.30664 -0.0547,-0.0312 -0.0547,-0.0293 -2.33008,-1.25391 -0.0547,-0.0312 -0.0547,-0.0273 -2.36524,-1.20117 -0.0547,-0.0293 -0.0566,-0.0273 -2.39649,-1.14648 -0.0586,-0.0273 -0.0566,-0.0254 -2.42969,-1.09375 -0.0566,-0.0254 -0.0586,-0.0254 -2.46094,-1.03711 -0.0586,-0.0234 -0.0586,-0.0234 -0.17187,-0.0684 z m 56.29688,54.52929 0.69336,1.63477 0.88086,2.22851 0.006,0.0176 0.88868,2.43164 0.004,0.008 0.77735,2.3125 0.0156,0.0449 0.70899,2.30078 0.68359,2.43359 0.61719,2.43945 0.53515,2.36133 0.008,0.043 0.49804,2.49805 0.43164,2.50195 0.36524,2.52149 0.29101,2.45117 0.002,0.0215 0.23828,2.57422 0.16992,2.57813 0.10352,2.5996 0.0351,2.61524 -0.0351,2.61523 -0.082,2.06446 10.56641,0.41601 0.084,-2.14258 0.002,-0.0684 0.002,-0.0703 0.0352,-2.74609 -5.28516,-0.0703 5.28516,-0.0684 -0.0352,-2.74414 -0.002,-0.0703 -0.002,-0.0684 -0.10743,-2.72851 -0.004,-0.0703 -0.004,-0.0684 -0.17773,-2.71094 -0.006,-0.0684 -0.006,-0.0684 -0.24805,-2.69141 -0.006,-0.0703 -0.008,-0.0684 -0.31836,-2.67187 -0.008,-0.0684 -0.01,-0.0684 -0.38476,-2.65039 -0.01,-0.0684 -0.0117,-0.0684 -0.45312,-2.62891 -0.0117,-0.0684 -0.0117,-0.0664 -0.51953,-2.60938 -0.0137,-0.0664 -0.0156,-0.0664 -0.58398,-2.58594 -0.0137,-0.0664 -0.0176,-0.0664 -0.64844,-2.56055 -0.0176,-0.0664 -0.0176,-0.0645 -0.71289,-2.53711 -0.0176,-0.0644 -0.0195,-0.0645 -0.77539,-2.51172 -0.0215,-0.0644 -0.0215,-0.0645 -0.83593,-2.48437 -0.0215,-0.0625 -0.0234,-0.0645 -0.89843,-2.45703 -0.0234,-0.0625 -0.0254,-0.0625 -0.95703,-2.42968 -0.0254,-0.0625 -0.0254,-0.0606 -0.71485,-1.68359 z m -212.85352,38.54688 0,0.0703 0,0.0684 0.0371,2.74609 0,0.0703 0.004,0.0684 0.10742,2.72852 0.002,0.0684 0.004,0.0703 0.17969,2.70899 0.004,0.0703 0.006,0.0684 0.24805,2.6914 0.008,0.0684 0.008,0.0703 0.31641,2.66992 0.008,0.0703 0.01,0.0684 0.38476,2.65039 0.0117,0.0684 0.0117,0.0684 0.45117,2.62891 0.0117,0.0684 0.0137,0.0664 0.51758,2.60742 0.0137,0.0684 0.0156,0.0664 0.58398,2.58398 0.0156,0.0684 0.0156,0.0645 0.65039,2.5625 0.0156,0.0645 0.0195,0.0664 0.71094,2.53711 0.0195,0.0645 0.0195,0.0645 0.77539,2.51172 0.0195,0.0645 0.0215,0.0625 0.83789,2.48633 0.0215,0.0625 0.0234,0.0644 0.89844,2.45703 0.0215,0.0625 0.0254,0.0625 0.81836,2.07422 9.83594,-3.88086 -0.80274,-2.0332 -0.0156,-0.041 -0.82422,-2.25782 -0.79883,-2.36914 -0.73047,-2.36328 -0.67969,-2.41601 -0.62109,-2.45704 -0.53515,-2.36328 -0.006,-0.0273 -0.49805,-2.49805 -0.43164,-2.51367 -0.36524,-2.52539 -0.30273,-2.54492 -0.22656,-2.45703 -0.002,-0.041 -0.17187,-2.58203 -0.10156,-2.59766 -0.0371,-2.61718 0.0352,-2.60938 -10.57226,-0.13867 z m 210.50781,43.75586 -0.0176,0.0332 -1.14649,2.22461 -1.1914,2.17187 -0.0215,0.041 -1.2168,2.0957 -0.0215,0.0352 -1.27734,2.08008 -0.0117,0.0176 -1.31836,2.03126 -0.0215,0.0332 -1.35937,1.98633 -0.0312,0.0469 -1.39649,1.93945 -1.45312,1.91993 -0.0254,0.0312 -1.56446,1.96679 -0.0254,0.0312 -1.54296,1.84375 -1.65821,1.88868 -0.01,0.0117 -1.6543,1.79493 -0.0195,0.0195 -1.71875,1.77539 -1.76172,1.73633 -1.76367,1.6582 -0.0391,0.0371 -1.81836,1.62695 -0.0293,0.0274 -0.0137,0.01 6.87109,8.03711 0.10742,-0.0918 0.0488,-0.041 0.0449,-0.043 1.93946,-1.73828 0.0469,-0.041 0.0469,-0.0449 1.89453,-1.78125 0.0469,-0.043 0.043,-0.0449 1.85156,-1.82617 0.0449,-0.043 0.043,-0.0469 1.80665,-1.86718 0.043,-0.0449 0.043,-0.0469 1.75781,-1.91016 0.043,-0.0469 0.043,-0.0469 1.71094,-1.94922 0.043,-0.0488 0.0391,-0.0488 1.66406,-1.98828 0.041,-0.0488 0.0391,-0.0508 1.61524,-2.02735 0.0391,-0.0508 0.0391,-0.0508 1.56445,-2.06641 0.0391,-0.0508 0.0371,-0.0527 1.51367,-2.10352 0.0371,-0.0527 0.0371,-0.0527 1.46093,-2.14062 0.0371,-0.0527 0.0352,-0.0547 1.41016,-2.17383 0.0351,-0.0547 0.0332,-0.0566 1.35742,-2.20898 0.0332,-0.0566 0.0332,-0.0547 1.30079,-2.24414 0.0332,-0.0566 0.0312,-0.0586 1.24805,-2.27539 0.0312,-0.0586 0.0293,-0.0586 1.19141,-2.3086 0.0312,-0.0586 0.0273,-0.0586 0.27344,-0.5625 -9.51563,-4.61133 z m -178.17968,33.72265 1.58203,1.56055 0.0449,0.0449 0.0449,0.043 1.89649,1.78125 0.0449,0.0449 0.0469,0.041 1.93946,1.73828 0.0469,0.043 0.0469,0.041 1.98242,1.69336 0.0488,0.041 0.0469,0.0391 2.02539,1.64844 0.0488,0.041 0.0488,0.0371 2.06445,1.60352 0.0508,0.0371 0.0488,0.0371 2.10547,1.55664 0.0508,0.0371 0.0508,0.0351 2.14649,1.50782 0.0508,0.0351 0.0527,0.0352 2.1836,1.45898 0.0508,0.0332 0.0527,0.0332 2.22266,1.41016 0.0527,0.0332 0.0527,0.0312 2.25781,1.35937 0.0547,0.0312 0.0547,0.0312 2.29297,1.30664 0.0547,0.0312 0.0547,0.0293 2.33007,1.25391 0.0547,0.0312 0.0566,0.0273 2.36328,1.20117 0.0566,0.0293 0.0566,0.0273 2.39648,1.14649 0.0566,0.0273 0.0566,0.0254 2.42969,1.09375 0.0586,0.0254 0.0566,0.0234 0.59571,0.25195 4.10547,-9.74414 -0.55665,-0.23437 -0.0371,-0.0156 -2.26367,-1.01953 -2.2207,-1.0625 -0.0156,-0.008 -2.30273,-1.17188 -0.0449,-0.0215 -2.16211,-1.16602 -2.13281,-1.21289 -0.041,-0.0254 -2.16601,-1.30078 -2.06055,-1.30469 -0.0449,-0.0293 -2.03516,-1.35938 -0.0332,-0.0234 -2.00977,-1.41015 -0.0254,-0.0195 -2.05078,-1.51367 -0.0293,-0.0215 -1.86718,-1.44922 -0.0215,-0.0176 -1.90625,-1.55078 -0.0156,-0.0117 -1.91797,-1.64062 -1.80078,-1.61328 -0.0371,-0.0352 -1.76758,-1.66015 -0.0332,-0.0312 -1.54883,-1.52735 z m 117.11718,18.33789 -0.0449,0.0156 -2.33594,0.73047 -0.0293,0.008 -2.53516,0.72852 -0.043,0.0117 -2.43554,0.63282 -2.54688,0.59961 -2.49414,0.52343 -0.0332,0.006 -2.625,0.48438 -2.63282,0.41992 -0.0195,0.004 -2.55859,0.34375 -2.58398,0.28515 -0.0215,0.002 -2.69141,0.23046 -2.71875,0.16797 -2.62109,0.0957 -0.0332,0 -2.75196,0.0351 -2.74804,-0.0351 -0.0371,0 -0.80469,-0.0312 -0.38672,10.5664 0.9336,0.0352 0.0645,0.002 0.0644,0 2.84961,0.0352 0.0645,0 0.0645,0 2.84961,-0.0352 0.0645,0 0.0645,-0.002 2.83203,-0.10352 0.0645,-0.004 0.0645,-0.004 2.8125,-0.17188 0.0644,-0.004 0.0645,-0.004 2.79297,-0.24023 0.0645,-0.006 0.0644,-0.006 2.77344,-0.30469 0.0645,-0.008 0.0625,-0.008 2.75196,-0.3711 0.0645,-0.01 0.0625,-0.01 2.73047,-0.43554 0.0625,-0.01 0.0645,-0.0117 2.70703,-0.5 0.0625,-0.0117 0.0625,-0.0137 2.6836,-0.5625 0.0625,-0.0117 0.0605,-0.0156 2.65821,-0.625 0.0625,-0.0137 0.0625,-0.0176 2.63281,-0.68555 0.0605,-0.0156 0.0625,-0.0176 2.60547,-0.74805 0.0606,-0.0176 0.0605,-0.0176 2.58008,-0.80664 0.0605,-0.0195 0.0605,-0.0195 2.37891,-0.80859 -3.39844,-10.01172 z"
         id="path3358-0-5-7-6-8-7-6-9-8-8" />
      <path
         style="fill:#ff9600;fill-opacity:1"
         d="m -464.20384,-605.15017 q 2.10882,1.94934 1.13925,6.07479 -0.96952,4.12547 -3.913,7.62716 l -6.23554,7.41808 9.80525,28.08617 q 0.29481,0.76378 -0.37665,1.42268 l -5.09237,4.57205 q -0.27531,0.28114 -0.79066,0.33695 -0.17174,0.0188 -0.30483,-0.009 -0.65685,-0.0539 -0.96929,-0.56504 l -14.12322,-19.74503 -10.03106,11.93345 3.09394,7.78951 q 0.28636,0.6809 -0.21291,1.32132 l -3.71808,4.42322 q -0.34855,0.41468 -0.9498,0.4798 l -0.0859,0.01 q -0.65261,-0.0128 -1.08551,-0.42684 l -9.17896,-9.55937 -11.61897,-6.6567 q -0.50191,-0.23876 -0.65527,-0.89225 -0.0976,-0.53384 0.28112,-1.07742 l 3.71389,-4.46464 q 0.34855,-0.41466 0.94978,-0.47977 0.25766,-0.0279 0.34777,0.004 l 8.55484,1.29291 10.03102,-11.93345 -22.99235,-9.19377 q -0.635,-0.26629 -0.8313,-0.9151 -0.15334,-0.65346 0.27271,-1.16028 l 4.95747,-5.89762 q 0.54643,-0.60362 1.25464,-0.47095 l 29.2289,3.4927 6.19681,-7.37203 q 2.94348,-3.50169 6.93137,-5.27383 3.98786,-1.77215 6.4065,-0.19144 z"
         id="path3338-7-5-4-2-3-2-3-3-9-9" />
    </g>
    <text
       id="text5634-6-4-8-6-8-2-1-8-6-6"
       y="1002.3101"
       x="120.54747"
       style="font-style:normal;font-weight:normal;font-size:65.47046661px;line-height:125%;font-family:sans-serif;letter-spacing:0px;word-spacing:0px;fill:#000000;fill-opacity:1;stroke:none;stroke-width:1px;stroke-linecap:butt;stroke-linejoin:miter;stroke-opacity:1"
       xml:space="preserve"><tspan
         style="font-style:normal;font-variant:normal;font-weight:600;font-stretch:normal;font-family:'Adobe Fan Heiti Std';-inkscape-font-specification:'Adobe Fan Heiti Std Semi-Bold'"
         id="tspan5648-5-6-7-2-3-6-7-7-4-1"
         y="1002.3101"
         x="120.54747"><tspan
           id="tspan5117-2-8-4"
           style="fill:#444444;fill-opacity:1">Fly</tspan><tspan
           id="tspan4344-8-4-3-7-5-9-5-0"
           style="font-style:normal;font-variant:normal;font-weight:600;font-stretch:normal;font-family:'Adobe Fan Heiti Std';-inkscape-font-specification:'Adobe Fan Heiti Std Semi-Bold';fill:#ff9600;fill-opacity:1">tive</tspan><tspan
           id="tspan5119-5-2"
           style="fill:#444444;fill-opacity:1">.com</tspan></tspan></text>
    <text
       id="text3405-1-3-6-0-6-3-1-3-0-5"
       y="1038.2574"
       x="195.6682"
       style="font-style:normal;font-weight:normal;font-size:27.1411972px;line-height:125%;font-family:sans-serif;letter-spacing:0px;word-spacing:0px;fill:#aa0000;fill-opacity:1;stroke:none;stroke-width:1px;stroke-linecap:butt;stroke-linejoin:miter;stroke-opacity:1"
       xml:space="preserve"><tspan
         style="font-style:normal;font-variant:normal;font-weight:600;font-stretch:normal;font-size:27.1411972px;font-family:'Adobe Fan Heiti Std';-inkscape-font-specification:'Adobe Fan Heiti Std Semi-Bold';fill:#aa0000;fill-opacity:1"
         y="1038.2574"
         x="195.6682"
         id="tspan3407-5-6-8-85-6-8-3-4-5-4"><tspan
           id="tspan4639-8-2-4-7"
           style="font-size:27.1411972px;fill:#ff9600;fill-opacity:1">Attractive</tspan><tspan
           id="tspan4559-7-6-7-0-7-5"
           style="font-style:normal;font-variant:normal;font-weight:600;font-stretch:normal;font-size:27.1411972px;font-family:'Adobe Fan Heiti Std';-inkscape-font-specification:'Adobe Fan Heiti Std Semi-Bold';fill:#444444;fill-opacity:1"> flights</tspan><tspan
           id="tspan4685-3-4-4-2"
           style="font-size:27.1411972px;fill:#ff9600;fill-opacity:1"> only</tspan></tspan></text>
  </g>
</svg>
