<?xml version="1.0" encoding="UTF-8" standalone="no"?>
<svg
   xmlns:dc="http://purl.org/dc/elements/1.1/"
   xmlns:cc="http://creativecommons.org/ns#"
   xmlns:rdf="http://www.w3.org/1999/02/22-rdf-syntax-ns#"
   xmlns:svg="http://www.w3.org/2000/svg"
   xmlns="http://www.w3.org/2000/svg"
   xmlns:sodipodi="http://sodipodi.sourceforge.net/DTD/sodipodi-0.dtd"
   xmlns:inkscape="http://www.inkscape.org/namespaces/inkscape"
   height="1408"
   width="1792"
   version="1.1"
   viewBox="0 0 1792 1408"
   id="svg2"
   inkscape:version="0.91 r13725"
   sodipodi:docname="oneway.svg"
   inkscape:export-filename="D:\Projects\AngularMaterial\Flytive\app\assets\oneway.png"
   inkscape:export-xdpi="0.55000001"
   inkscape:export-ydpi="0.55000001">
  <defs
     id="defs10" />
  <sodipodi:namedview
     pagecolor="#ffffff"
     bordercolor="#666666"
     borderopacity="1"
     objecttolerance="10"
     gridtolerance="10"
     guidetolerance="10"
     inkscape:pageopacity="0"
     inkscape:pageshadow="2"
     inkscape:window-width="1366"
     inkscape:window-height="746"
     id="namedview8"
     showgrid="false"
     inkscape:zoom="0.13169643"
     inkscape:cx="896"
     inkscape:cy="896"
     inkscape:window-x="-8"
     inkscape:window-y="-8"
     inkscape:window-maximized="1"
     inkscape:current-layer="svg2" />
  <metadata
     id="metadata4">
    <rdf:RDF>
      <cc:Work
         rdf:about="">
        <dc:format>image/svg+xml</dc:format>
        <dc:type
           rdf:resource="http://purl.org/dc/dcmitype/StillImage" />
        <dc:title></dc:title>
      </cc:Work>
    </rdf:RDF>
  </metadata>
  <path
     d="m 1792,704 q 0,14 -9,23 l -320,320 q -9,9 -23,9 -13,0 -22.5,-9.5 -9.5,-9.5 -9.5,-22.5 l 0,-192 -1376,0 Q 19,832 9.5,822.5 0,813 0,800 L 0,608 Q 0,595 9.5,585.5 19,576 32,576 l 1376,0 0,-192 q 0,-14 9,-23 9,-9 23,-9 12,0 24,10 l 319,319 q 9,9 9,23 z"
     id="path6"
     inkscape:export-filename="D:\Projects\AngularMaterial\Flytive\app\assets\false.png"
     inkscape:export-xdpi="0.51136363"
     inkscape:export-ydpi="0.51136363"
     inkscape:connector-curvature="0" />
</svg>
