<?xml version="1.0" encoding="UTF-8" standalone="no"?>
<svg
   xmlns:dc="http://purl.org/dc/elements/1.1/"
   xmlns:cc="http://creativecommons.org/ns#"
   xmlns:rdf="http://www.w3.org/1999/02/22-rdf-syntax-ns#"
   xmlns:svg="http://www.w3.org/2000/svg"
   xmlns="http://www.w3.org/2000/svg"
   xmlns:sodipodi="http://sodipodi.sourceforge.net/DTD/sodipodi-0.dtd"
   xmlns:inkscape="http://www.inkscape.org/namespaces/inkscape"
   width="1792"
   height="1792"
   viewBox="0 0 1792 1792"
   id="svg2"
   version="1.1"
   inkscape:version="0.91 r13725"
   sodipodi:docname="return.svg"
   inkscape:export-filename="D:\Projects\AngularMaterial\Flytive\app\assets\return.png"
   inkscape:export-xdpi="0.8035714"
   inkscape:export-ydpi="0.8035714">
  <metadata
     id="metadata10">
    <rdf:RDF>
      <cc:Work
         rdf:about="">
        <dc:format>image/svg+xml</dc:format>
        <dc:type
           rdf:resource="http://purl.org/dc/dcmitype/StillImage" />
      </cc:Work>
    </rdf:RDF>
  </metadata>
  <defs
     id="defs8" />
  <sodipodi:namedview
     pagecolor="#ffffff"
     bordercolor="#666666"
     borderopacity="1"
     objecttolerance="10"
     gridtolerance="10"
     guidetolerance="10"
     inkscape:pageopacity="0"
     inkscape:pageshadow="2"
     inkscape:window-width="1366"
     inkscape:window-height="746"
     id="namedview6"
     showgrid="false"
     inkscape:zoom="0.13169643"
     inkscape:cx="896"
     inkscape:cy="896"
     inkscape:window-x="-8"
     inkscape:window-y="-8"
     inkscape:window-maximized="1"
     inkscape:current-layer="svg2" />
  <path
     d="M1792 1184v192q0 13-9.5 22.5t-22.5 9.5h-1376v192q0 13-9.5 22.5t-22.5 9.5q-12 0-24-10l-319-320q-9-9-9-22 0-14 9-23l320-320q9-9 23-9 13 0 22.5 9.5t9.5 22.5v192h1376q13 0 22.5 9.5t9.5 22.5zm0-544q0 14-9 23l-320 320q-9 9-23 9-13 0-22.5-9.5t-9.5-22.5v-192h-1376q-13 0-22.5-9.5t-9.5-22.5v-192q0-13 9.5-22.5t22.5-9.5h1376v-192q0-14 9-23t23-9q12 0 24 10l319 319q9 9 9 23z"
     id="path4"
     inkscape:export-filename="D:\Projects\AngularMaterial\Flytive\app\assets\true.png"
     inkscape:export-xdpi="0.53571427"
     inkscape:export-ydpi="0.53571427" />
</svg>
